# xmcd
# 
# Track frame offsets:
#     150
#     17638
#     36233
#     53355
#     71265
#     93295
#     111393
#     128603
#     145800
#     162365
#     184473
# 
# Disc length: 2669
# 
# Revision: 1
# Processed by: cddbd v1.5.2PL0 Copyright (c) Steve Scherf et al.
# Submitted via: fre:ac v1.0.17
# 
DISCID=8e0a6b0b
DTITLE=Strawberry JAM - 空
DYEAR=0
DGENRE=Japanese Pop
TTITLE0=希望峰
TTITLE1=永遠の羽
TTITLE2=未来号かなた行き
TTITLE3=S.J.KIDS
TTITLE4=おやすみの前に
TTITLE5=魔法をかけて
TTITLE6=Tokyo taste
TTITLE7=太陽のように
TTITLE8=放浪BIRD
TTITLE9=約束の橋
TTITLE10=いっぽんでもニンジン
EXTD=
EXTT0=
EXTT1=
EXTT2=
EXTT3=
EXTT4=
EXTT5=
EXTT6=
EXTT7=
EXTT8=
EXTT9=
EXTT10=
PLAYORDER=
